HIERARCHY
ROOT Hips
{
	OFFSET 0.000000 0.000000 0.000000
	CHANNELS 6 Xposition Yposition Zposition Zrotation Yrotation Xrotation 
	JOINT LHipJoint
	{
		OFFSET 0.000000 0.000000 0.000000
		CHANNELS 3 Zrotation Yrotation Xrotation
		JOINT LeftUpLeg
		{
			OFFSET 1.363060 -1.794630 0.839290
			CHANNELS 3 Zrotation Yrotation Xrotation
			JOINT LeftLeg
			{
				OFFSET 2.448110 -6.726130 0.000000
				CHANNELS 3 Zrotation Yrotation Xrotation
				JOINT LeftFoot
				{
					OFFSET 2.562200 -7.039590 0.000000
					CHANNELS 3 Zrotation Yrotation Xrotation
					JOINT LeftToeBase
					{
						OFFSET 0.157640 -0.433110 2.322550
						CHANNELS 3 Zrotation Yrotation Xrotation
						End Site
						{
							OFFSET 0.000000 0.000000 0.000000
						}
					}
				}
			}
		}
	}
	JOINT RHipJoint
	{
		OFFSET 0.000000 0.000000 0.000000
		CHANNELS 3 Zrotation Yrotation Xrotation
		JOINT RightUpLeg
		{
			OFFSET -1.305520 -1.794630 0.839290
			CHANNELS 3 Zrotation Yrotation Xrotation
			JOINT RightLeg
			{
				OFFSET -2.542530 -6.985550 0.000000
				CHANNELS 3 Zrotation Yrotation Xrotation
				JOINT RightFoot
				{
					OFFSET -2.568260 -7.056230 0.000000
					CHANNELS 3 Zrotation Yrotation Xrotation
					JOINT RightToeBase
					{
						OFFSET -0.164730 -0.452590 2.363150
						CHANNELS 3 Zrotation Yrotation Xrotation
						End Site
						{
							OFFSET 0.000000 0.000000 0.000000
						}
					}
				}
			}
		}
	}
}
MOTION
Frames: 14
Frame Time: 0.008333
1.110496 17.349655 1.372203 11.102696 -81.437918 0.376735 -10.760240 2.049812 1.866356 -7.398410 11.406670 -18.083828 -2.249452 -0.996084 4.646801 1.189914 9.640095 2.078065 1.864100 0.000000 -45.450401 10.281317 -1.873088 0.877379 2.335697 -12.654451 -16.763386 1.979947 0.093961 10.360717 -1.144316 -6.504317 1.583288 -1.632800 -0.000000 -66.820900
1.105826 17.346300 1.333913 11.383790 -82.111812 0.265647 -10.792112 1.967415 1.802826 -7.185793 11.564221 -18.845276 -2.187160 -0.921023 5.985857 1.284820 10.111735 1.648046 1.867301 -0.000000 -45.811600 10.218713 -1.899828 0.996979 2.577885 -12.057170 -17.421306 2.004806 0.033498 11.037806 -1.093369 -6.126849 1.416913 -1.540600 0.000000 -66.750000
1.100314 17.342375 1.296729 12.100920 -83.092589 -0.292133 -10.838168 1.894341 1.704498 -6.984474 11.952321 -19.515396 -2.131930 -0.850360 7.199766 1.385069 10.632413 1.257154 1.878600 -0.000000 -46.156300 10.146468 -1.930246 1.158360 2.802778 -11.273930 -18.066110 2.028125 -0.017431 11.634380 -1.025322 -5.669994 1.296716 -1.442399 -0.000000 -66.738000
1.093582 17.338008 1.261054 13.598723 -84.428162 -1.640569 -10.895328 1.840993 1.573595 -6.789531 12.588525 -20.072319 -2.087578 -0.783258 8.248364 1.491358 11.203990 0.903300 1.897600 0.000000 -46.471400 10.066335 -1.956178 1.361730 3.012794 -10.292103 -18.688557 2.050002 -0.053201 12.132400 -0.937044 -5.124474 1.232841 -1.337600 0.000000 -66.780700
1.085197 17.333294 1.227282 16.992623 -86.204389 -4.894087 -10.948380 1.833076 1.418597 -6.584781 13.484183 -20.499286 -2.059334 -0.712658 9.098704 1.607048 11.833901 0.578471 1.923200 -0.000000 -46.740300 9.991776 -1.953370 1.601561 3.217419 -9.096940 -19.277800 2.069312 -0.064049 12.524118 -0.822616 -4.473474 1.239277 -1.224600 -0.000000 -66.866200
1.074695 17.328378 1.195832 28.658856 -88.740770 -16.430025 -10.848021 1.985561 1.273973 -6.289877 14.670025 -20.809136 -2.063391 -0.605943 9.723366 1.747848 12.555041 0.260105 1.954500 0.000000 -46.957700 10.066817 -1.807760 1.863273 3.496833 -7.637853 -19.817830 2.076069 -0.017913 12.819240 -0.664988 -3.678346 1.350029 -1.101200 -0.000000 -66.994200
1.061810 17.323381 1.166974 -42.006222 -88.318042 54.465764 -9.775774 1.478331 0.718492 -5.509119 15.721130 -20.912004 -1.976742 -0.844255 10.428036 1.747675 12.936859 0.052443 1.991701 0.000000 -47.120500 11.064403 -2.243631 2.454938 4.252556 -6.312905 -20.434986 2.178813 -0.306734 12.665401 -0.648724 -3.161545 1.432210 -0.962800 -0.000000 -67.155500
1.050573 17.318447 1.133871 174.099866 -87.631508 -161.604846 -10.961698 1.265098 0.237100 -5.936349 18.191773 -20.396888 -2.028964 -0.820791 10.251626 1.813881 13.578473 0.031209 2.038700 -0.000000 -47.400700 9.905620 -2.513605 2.919977 3.496831 -3.757356 -21.001252 2.157635 -0.317890 12.973743 -0.478392 -2.177805 1.574809 -0.803000 -0.000000 -67.324701
1.032952 17.313590 1.110608 179.867232 -84.413398 -167.203283 -11.199964 1.308617 0.006504 -5.589923 19.760697 -20.164833 -2.035070 -0.766554 10.278408 1.953356 14.441451 -0.173663 2.097300 -0.000000 -47.494600 9.637473 -2.505117 3.271848 3.630779 -1.901364 -21.476545 2.216819 -0.264742 12.886538 -0.251384 -0.999894 1.968011 -0.612300 0.000000 -67.555800
1.013031 17.309051 1.089999 -177.185991 -81.021923 -169.964194 -11.337968 1.345115 -0.246311 -5.093003 21.359070 -19.741838 -2.035035 -0.730046 10.156111 2.094523 15.361505 -0.331554 2.173399 0.000000 -47.582200 9.462813 -2.496472 3.658658 3.832629 0.064500 -21.915631 2.297245 -0.220724 12.672368 -0.005477 0.308765 2.484152 -0.383500 -0.000000 -67.823300
0.991120 17.305002 1.071703 -175.279318 -77.413572 -171.670175 -11.438712 1.385219 -0.500542 -4.462597 22.934173 -19.120307 -2.023827 -0.700378 9.907079 2.242096 16.358707 -0.429802 2.274401 0.000000 -47.689700 9.322690 -2.477440 4.065880 4.072964 2.118362 -22.311299 2.398990 -0.179002 12.352516 0.260501 1.763428 3.131083 -0.106000 0.000000 -68.135400
0.967924 17.301539 1.055205 -173.892797 -73.604576 -172.848347 -11.519635 1.433628 -0.744246 -3.705674 24.436343 -18.301185 -1.996335 -0.672254 9.568723 2.397135 17.437571 -0.454321 2.408400 0.000000 -47.840501 9.202140 -2.442081 4.486687 4.341597 4.233472 -22.656230 2.521451 -0.139165 11.942655 0.542282 3.366083 3.910068 0.231800 -0.000001 -68.501000
0.944167 17.298770 1.039903 -172.830799 -69.637705 -173.699731 -11.590822 1.491278 -0.969709 -2.837412 25.825802 -17.296712 -1.949025 -0.642916 9.186940 2.557976 18.588242 -0.392484 2.583000 0.000001 -48.056600 9.092807 -2.389963 4.917294 4.630165 6.378405 -22.945077 2.663000 -0.102515 11.456265 0.832364 5.110614 4.814080 0.642000 0.000001 -68.930400
0.920705 17.296764 1.025098 -172.010415 -65.567573 -174.315590 -11.660618 1.557410 -1.173391 -1.884409 27.080138 -16.133379 -1.881603 -0.610624 8.811006 2.720020 19.782713 -0.234932 2.802899 0.000000 -48.343200 8.987117 -2.323639 5.353812 4.929962 8.517216 -23.174132 2.820723 -0.070288 10.905182 1.121690 6.986339 5.828575 1.135700 0.000000 -69.432700
